<svg xmlns="http://www.w3.org/2000/svg" version="1.1" xmlns:xlink="http://www.w3.org/1999/xlink" xmlns:svgjs="http://svgjs.dev/svgjs" viewBox="0 0 640 800"><g fill="hsl(205, 69%, 50%)" transform="matrix(1.4,0,0,1.4,-127.59999999999997,-159.19999999999993)"><circle r="1" cx="325" cy="400" opacity="0.17"></circle><circle r="1" cx="324" cy="404" opacity="0.42"></circle><circle r="1" cx="321" cy="406" opacity="0.86"></circle><circle r="1" cx="317" cy="406" opacity="0.92"></circle><circle r="1" cx="313" cy="403" opacity="0.87"></circle><circle r="1" cx="312" cy="398" opacity="0.28"></circle><circle r="1" cx="315" cy="393" opacity="0.88"></circle><circle r="1" cx="320" cy="390" opacity="0.45"></circle><circle r="1" cx="327" cy="392" opacity="0.81"></circle><circle r="1" cx="331" cy="398" opacity="0.29"></circle><circle r="1" cx="330" cy="406" opacity="0.43"></circle><circle r="1" cx="325" cy="412" opacity="0.42"></circle><circle r="1" cx="316" cy="413" opacity="0.19"></circle><circle r="1" cx="308" cy="408" opacity="0.25"></circle><circle r="1" cx="306" cy="399" opacity="0.88"></circle><circle r="1" cx="309" cy="389" opacity="0.40"></circle><circle r="1" cx="318" cy="384" opacity="0.61"></circle><circle r="1" cx="329" cy="386" opacity="0.51"></circle><circle r="1" cx="336" cy="394" opacity="0.21"></circle><circle r="1" cx="337" cy="406" opacity="0.83"></circle><circle r="1" cx="330" cy="416" opacity="0.18"></circle><circle r="1" cx="317" cy="419" opacity="0.79"></circle><circle r="1" cx="305" cy="414" opacity="0.88"></circle><circle r="1" cx="299" cy="401" opacity="0.41"></circle><circle r="1" cx="303" cy="388" opacity="0.62"></circle><circle r="1" cx="314" cy="379" opacity="0.63"></circle><circle r="1" cx="329" cy="379" opacity="0.63"></circle><circle r="1" cx="341" cy="389" opacity="0.97"></circle><circle r="1" cx="344" cy="405" opacity="0.29"></circle><circle r="1" cx="336" cy="419" opacity="0.85"></circle><circle r="1" cx="321" cy="425" opacity="0.72"></circle><circle r="1" cx="304" cy="421" opacity="0.24"></circle><circle r="1" cx="294" cy="406" opacity="0.35"></circle><circle r="1" cx="295" cy="388" opacity="0.18"></circle><circle r="1" cx="308" cy="375" opacity="0.67"></circle><circle r="1" cx="327" cy="372" opacity="0.43"></circle><circle r="1" cx="343" cy="382" opacity="0.84"></circle><circle r="1" cx="350" cy="401" opacity="0.96"></circle><circle r="1" cx="343" cy="420" opacity="0.82"></circle><circle r="1" cx="326" cy="431" opacity="0.75"></circle><circle r="1.5" cx="305" cy="428" opacity="0.88"></circle><circle r="1.5" cx="290" cy="413" opacity="0.44"></circle><circle r="1.5" cx="288" cy="391" opacity="0.59"></circle><circle r="1.5" cx="301" cy="372" opacity="0.21"></circle><circle r="1.5" cx="323" cy="365" opacity="0.30"></circle><circle r="1.5" cx="344" cy="374" opacity="0.53"></circle><circle r="1.5" cx="356" cy="395" opacity="0.56"></circle><circle r="1.5" cx="352" cy="419" opacity="0.98"></circle><circle r="1.5" cx="333" cy="435" opacity="0.56"></circle><circle r="1.5" cx="307" cy="436" opacity="0.33"></circle><circle r="1.5" cx="287" cy="421" opacity="0.20"></circle><circle r="1.5" cx="281" cy="395" opacity="0.30"></circle><circle r="1.5" cx="292" cy="371" opacity="0.29"></circle><circle r="1.5" cx="316" cy="359" opacity="0.85"></circle><circle r="1.5" cx="343" cy="365" opacity="0.88"></circle><circle r="1.5" cx="361" cy="388" opacity="0.39"></circle><circle r="1.5" cx="360" cy="416" opacity="0.29"></circle><circle r="1.5" cx="341" cy="438" opacity="0.52"></circle><circle r="1.5" cx="312" cy="444" opacity="0.74"></circle><circle r="1.5" cx="286" cy="430" opacity="0.38"></circle><circle r="1.5" cx="274" cy="402" opacity="0.15"></circle><circle r="1.5" cx="283" cy="372" opacity="0.73"></circle><circle r="1.5" cx="308" cy="354" opacity="0.54"></circle><circle r="1.5" cx="340" cy="356" opacity="0.20"></circle><circle r="1.5" cx="363" cy="378" opacity="0.16"></circle><circle r="1.5" cx="368" cy="411" opacity="0.33"></circle><circle r="1.5" cx="351" cy="439" opacity="0.28"></circle><circle r="1.5" cx="320" cy="451" opacity="0.87"></circle><circle r="1.5" cx="288" cy="440" opacity="0.24"></circle><circle r="1.5" cx="269" cy="411" opacity="0.98"></circle><circle r="1.5" cx="273" cy="376" opacity="0.34"></circle><circle r="1.5" cx="299" cy="351" opacity="0.35"></circle><circle r="1.5" cx="334" cy="348" opacity="0.95"></circle><circle r="1.5" cx="364" cy="368" opacity="0.19"></circle><circle r="1.5" cx="375" cy="403" opacity="0.16"></circle><circle r="1.5" cx="362" cy="438" opacity="0.41"></circle><circle r="1.5" cx="329" cy="456" opacity="0.61"></circle><circle r="1.5" cx="291" cy="450" opacity="0.21"></circle><circle r="1.5" cx="266" cy="421" opacity="0.49"></circle><circle r="1.5" cx="264" cy="382" opacity="0.83"></circle><circle r="2" cx="288" cy="350" opacity="0.88"></circle><circle r="2" cx="326" cy="340" opacity="0.58"></circle><circle r="2" cx="363" cy="357" opacity="0.81"></circle><circle r="2" cx="381" cy="393" opacity="0.46"></circle><circle r="2" cx="372" cy="434" opacity="0.98"></circle><circle r="2" cx="340" cy="460" opacity="0.86"></circle><circle r="2" cx="298" cy="459" opacity="0.90"></circle><circle r="2" cx="265" cy="432" opacity="0.82"></circle><circle r="2" cx="256" cy="390" opacity="0.47"></circle><circle r="2" cx="276" cy="352" opacity="0.97"></circle><circle r="2" cx="316" cy="334" opacity="0.87"></circle><circle r="2" cx="359" cy="346" opacity="0.28"></circle><circle r="2" cx="385" cy="382" opacity="0.32"></circle><circle r="2" cx="383" cy="427" opacity="0.88"></circle><circle r="2" cx="352" cy="461" opacity="0.52"></circle><circle r="2" cx="306" cy="468" opacity="0.14"></circle><circle r="2" cx="266" cy="445" opacity="0.15"></circle><circle r="2" cx="249" cy="401" opacity="0.58"></circle><circle r="2" cx="264" cy="356" opacity="0.77"></circle><circle r="2" cx="304" cy="329" opacity="0.69"></circle><circle r="2" cx="352" cy="334" opacity="0.64"></circle><circle r="2" cx="387" cy="369" opacity="0.40"></circle><circle r="2" cx="392" cy="418" opacity="0.48"></circle><circle r="2" cx="365" cy="460" opacity="0.69"></circle><circle r="2" cx="317" cy="476" opacity="0.89"></circle><circle r="2" cx="270" cy="458" opacity="0.27"></circle><circle r="2" cx="244" cy="414" opacity="0.35"></circle><circle r="2" cx="252" cy="362" opacity="0.50"></circle><circle r="2" cx="290" cy="327" opacity="0.34"></circle><circle r="2" cx="343" cy="324" opacity="0.11"></circle><circle r="2" cx="386" cy="355" opacity="0.46"></circle><circle r="2" cx="400" cy="407" opacity="0.17"></circle><circle r="2" cx="379" cy="456" opacity="0.49"></circle><circle r="2" cx="331" cy="481" opacity="0.40"></circle><circle r="2" cx="277" cy="470" opacity="0.40"></circle><circle r="2" cx="242" cy="428" opacity="0.75"></circle><circle r="2" cx="241" cy="372" opacity="0.22"></circle><circle r="2" cx="276" cy="328" opacity="0.14"></circle><circle r="2" cx="331" cy="315" opacity="0.36"></circle><circle r="2" cx="382" cy="341" opacity="0.40"></circle><circle r="2.5" cx="406" cy="393" opacity="0.10"></circle><circle r="2.5" cx="392" cy="449" opacity="0.59"></circle><circle r="2.5" cx="345" cy="484" opacity="0.44"></circle><circle r="2.5" cx="286" cy="482" opacity="0.41"></circle><circle r="2.5" cx="242" cy="443" opacity="0.85"></circle><circle r="2.5" cx="231" cy="384" opacity="0.69"></circle><circle r="2.5" cx="261" cy="331" opacity="0.92"></circle><circle r="2.5" cx="317" cy="309" opacity="0.32"></circle><circle r="2.5" cx="375" cy="327" opacity="0.67"></circle><circle r="2.5" cx="410" cy="378" opacity="0.65"></circle><circle r="2.5" cx="405" cy="439" opacity="0.31"></circle><circle r="2.5" cx="361" cy="484" opacity="0.25"></circle><circle r="2.5" cx="299" cy="492" opacity="0.28"></circle><circle r="2.5" cx="245" cy="459" opacity="0.99"></circle><circle r="2.5" cx="224" cy="399" opacity="0.12"></circle><circle r="2.5" cx="246" cy="338" opacity="0.38"></circle><circle r="2.5" cx="301" cy="304" opacity="0.50"></circle><circle r="2.5" cx="366" cy="313" opacity="0.37"></circle><circle r="2.5" cx="411" cy="361" opacity="0.18"></circle><circle r="2.5" cx="416" cy="427" opacity="0.49"></circle><circle r="2.5" cx="378" cy="482" opacity="0.39"></circle><circle r="2.5" cx="314" cy="501" opacity="0.33"></circle><circle r="2.5" cx="251" cy="475" opacity="0.70"></circle><circle r="2.5" cx="219" cy="415" opacity="0.44"></circle><circle r="2.5" cx="231" cy="348" opacity="0.76"></circle><circle r="2.5" cx="283" cy="303" opacity="0.95"></circle><circle r="2.5" cx="353" cy="301" opacity="0.45"></circle><circle r="2.5" cx="408" cy="343" opacity="0.97"></circle><circle r="2.5" cx="425" cy="411" opacity="0.50"></circle><circle r="2.5" cx="395" cy="475" opacity="0.76"></circle><circle r="2.5" cx="331" cy="506" opacity="0.79"></circle><circle r="2.5" cx="261" cy="490" opacity="0.90"></circle><circle r="2.5" cx="217" cy="433" opacity="0.26"></circle><circle r="2.5" cx="218" cy="361" opacity="0.19"></circle><circle r="2.5" cx="265" cy="305" opacity="0.40"></circle><circle r="2.5" cx="337" cy="291" opacity="0.70"></circle><circle r="2.5" cx="402" cy="326" opacity="0.39"></circle><circle r="2.5" cx="432" cy="394" opacity="0.89"></circle><circle r="2.5" cx="411" cy="466" opacity="0.76"></circle><circle r="2.5" cx="350" cy="509" opacity="0.74"></circle><circle r="3" cx="274" cy="504" opacity="0.77"></circle><circle r="3" cx="218" cy="452" opacity="0.66"></circle><circle r="3" cx="207" cy="377" opacity="0.83"></circle><circle r="3" cx="247" cy="310" opacity="0.61"></circle><circle r="3" cx="319" cy="283" opacity="0.69"></circle><circle r="3" cx="393" cy="308" opacity="0.37"></circle><circle r="3" cx="435" cy="375" opacity="0.42"></circle><circle r="3" cx="426" cy="453" opacity="0.21"></circle><circle r="3" cx="370" cy="508" opacity="1.00"></circle><circle r="3" cx="290" cy="516" opacity="0.71"></circle><circle r="3" cx="223" cy="472" opacity="0.57"></circle><circle r="3" cx="199" cy="395" opacity="0.71"></circle><circle r="3" cx="228" cy="319" opacity="0.23"></circle><circle r="3" cx="299" cy="279" opacity="0.66"></circle><circle r="3" cx="380" cy="292" opacity="0.29"></circle><circle r="3" cx="435" cy="354" opacity="0.80"></circle><circle r="3" cx="439" cy="437" opacity="0.88"></circle><circle r="3" cx="390" cy="504" opacity="0.59"></circle><circle r="3" cx="309" cy="526" opacity="0.40"></circle><circle r="3" cx="232" cy="491" opacity="0.28"></circle><circle r="3" cx="194" cy="416" opacity="0.13"></circle><circle r="3" cx="211" cy="332" opacity="0.86"></circle><circle r="3" cx="278" cy="278" opacity="0.57"></circle><circle r="3" cx="364" cy="278" opacity="0.71"></circle><circle r="3" cx="431" cy="333" opacity="0.67"></circle><circle r="3" cx="450" cy="418" opacity="0.94"></circle><circle r="3" cx="410" cy="496" opacity="0.18"></circle><circle r="3" cx="330" cy="532" opacity="0.64"></circle><circle r="3" cx="244" cy="509" opacity="0.21"></circle><circle r="3" cx="192" cy="438" opacity="0.92"></circle><circle r="3" cx="196" cy="348" opacity="0.97"></circle><circle r="3" cx="256" cy="281" opacity="0.87"></circle><circle r="3" cx="345" cy="267" opacity="0.76"></circle><circle r="3" cx="424" cy="312" opacity="0.84"></circle><circle r="3" cx="457" cy="396" opacity="0.61"></circle><circle r="3" cx="429" cy="484" opacity="0.24"></circle><circle r="3" cx="353" cy="534" opacity="0.45"></circle><circle r="3" cx="261" cy="526" opacity="0.12"></circle><circle r="3" cx="194" cy="461" opacity="0.40"></circle><circle r="3" cx="183" cy="368" opacity="0.64"></circle><circle r="3.5" cx="234" cy="289" opacity="0.88"></circle><circle r="3.5" cx="323" cy="258" opacity="0.87"></circle><circle r="3.5" cx="412" cy="291" opacity="0.37"></circle><circle r="3.5" cx="460" cy="373" opacity="0.30"></circle><circle r="3.5" cx="447" cy="468" opacity="0.56"></circle><circle r="3.5" cx="376" cy="533" opacity="0.66"></circle><circle r="3.5" cx="280" cy="539" opacity="0.18"></circle><circle r="3.5" cx="201" cy="484" opacity="0.31"></circle><circle r="3.5" cx="174" cy="390" opacity="0.57"></circle><circle r="3.5" cx="212" cy="300" opacity="0.81"></circle><circle r="3.5" cx="299" cy="254" opacity="0.79"></circle><circle r="3.5" cx="396" cy="272" opacity="0.12"></circle><circle r="3.5" cx="460" cy="348" opacity="0.17"></circle><circle r="3.5" cx="462" cy="448" opacity="0.35"></circle><circle r="3.5" cx="400" cy="527" opacity="0.67"></circle><circle r="3.5" cx="303" cy="550" opacity="0.87"></circle><circle r="3.5" cx="211" cy="506" opacity="0.99"></circle><circle r="3.5" cx="168" cy="414" opacity="0.80"></circle><circle r="3.5" cx="192" cy="315" opacity="0.29"></circle><circle r="3.5" cx="274" cy="253" opacity="0.86"></circle><circle r="3.5" cx="377" cy="256" opacity="0.51"></circle><circle r="3.5" cx="455" cy="323" opacity="0.22"></circle><circle r="3.5" cx="474" cy="425" opacity="0.45"></circle><circle r="3.5" cx="424" cy="517" opacity="0.13"></circle><circle r="3.5" cx="327" cy="557" opacity="0.91"></circle><circle r="3.5" cx="227" cy="527" opacity="0.98"></circle><circle r="3.5" cx="167" cy="440" opacity="0.84"></circle><circle r="3.5" cx="175" cy="335" opacity="0.95"></circle><circle r="3.5" cx="248" cy="257" opacity="0.29"></circle><circle r="3.5" cx="354" cy="243" opacity="0.75"></circle><circle r="3.5" cx="446" cy="299" opacity="0.52"></circle><circle r="3.5" cx="482" cy="400" opacity="0.34"></circle><circle r="3.5" cx="447" cy="502" opacity="0.30"></circle><circle r="3.5" cx="354" cy="560" opacity="0.95"></circle><circle r="3.5" cx="246" cy="546" opacity="0.54"></circle><circle r="3.5" cx="170" cy="467" opacity="0.58"></circle><circle r="3.5" cx="160" cy="358" opacity="0.27"></circle><circle r="3.5" cx="222" cy="266" opacity="0.37"></circle><circle r="3.5" cx="328" cy="233" opacity="0.17"></circle><circle r="4" cx="431" cy="275" opacity="0.58"></circle><circle r="4" cx="486" cy="373" opacity="0.61"></circle><circle r="4" cx="467" cy="483" opacity="0.83"></circle><circle r="4" cx="382" cy="558" opacity="0.92"></circle><circle r="4" cx="269" cy="562" opacity="0.14"></circle><circle r="4" cx="177" cy="494" opacity="0.93"></circle><circle r="4" cx="149" cy="384" opacity="0.75"></circle><circle r="4" cx="197" cy="279" opacity="0.54"></circle><circle r="4" cx="300" cy="228" opacity="0.30"></circle><circle r="4" cx="413" cy="253" opacity="0.66"></circle><circle r="4" cx="485" cy="344" opacity="0.11"></circle><circle r="4" cx="484" cy="461" opacity="0.26"></circle><circle r="4" cx="410" cy="551" opacity="0.47"></circle><circle r="4" cx="295" cy="575" opacity="0.73"></circle><circle r="4" cx="190" cy="520" opacity="0.87"></circle><circle r="4" cx="143" cy="412" opacity="0.17"></circle><circle r="4" cx="174" cy="297" opacity="0.62"></circle><circle r="4" cx="271" cy="228" opacity="0.98"></circle><circle r="4" cx="390" cy="235" opacity="0.73"></circle><circle r="4" cx="479" cy="315" opacity="0.39"></circle><circle r="4" cx="498" cy="434" opacity="0.98"></circle><circle r="4" cx="437" cy="539" opacity="0.33"></circle><circle r="4" cx="324" cy="582" opacity="0.29"></circle><circle r="4" cx="208" cy="545" opacity="0.88"></circle><circle r="4" cx="141" cy="442" opacity="0.67"></circle><circle r="4" cx="154" cy="320" opacity="0.31"></circle><circle r="4" cx="241" cy="233" opacity="0.84"></circle><circle r="4" cx="364" cy="219" opacity="0.12"></circle><circle r="4" cx="468" cy="287" opacity="0.82"></circle><circle r="4" cx="507" cy="405" opacity="0.57"></circle><circle r="4" cx="463" cy="522" opacity="0.28"></circle><circle r="4" cx="354" cy="585" opacity="0.14"></circle><circle r="4" cx="230" cy="566" opacity="0.98"></circle><circle r="4" cx="145" cy="473" opacity="1.00"></circle><circle r="4" cx="137" cy="346" opacity="0.26"></circle><circle r="4" cx="211" cy="243" opacity="0.44"></circle><circle r="4" cx="334" cy="209" opacity="0.57"></circle><circle r="4" cx="452" cy="260" opacity="0.19"></circle><circle r="4" cx="512" cy="374" opacity="0.65"></circle><circle r="4" cx="486" cy="501" opacity="0.71"></circle><circle r="4.5" cx="386" cy="583" opacity="0.79"></circle><circle r="4.5" cx="256" cy="585" opacity="0.46"></circle><circle r="4.5" cx="154" cy="504" opacity="0.14"></circle><circle r="4.5" cx="125" cy="376" opacity="0.93"></circle><circle r="4.5" cx="183" cy="258" opacity="0.71"></circle><circle r="4.5" cx="303" cy="203" opacity="0.15"></circle><circle r="4.5" cx="431" cy="235" opacity="0.79"></circle><circle r="4.5" cx="511" cy="341" opacity="0.34"></circle><circle r="4.5" cx="506" cy="474" opacity="1.00"></circle><circle r="4.5" cx="418" cy="575" opacity="0.25"></circle><circle r="4.5" cx="286" cy="599" opacity="0.76"></circle><circle r="4.5" cx="168" cy="533" opacity="0.44"></circle><circle r="4.5" cx="117" cy="408" opacity="0.65"></circle><circle r="4.5" cx="157" cy="278" opacity="0.52"></circle><circle r="4.5" cx="269" cy="202" opacity="0.88"></circle><circle r="4.5" cx="405" cy="214" opacity="0.90"></circle><circle r="4.5" cx="504" cy="308" opacity="0.67"></circle><circle r="4.5" cx="521" cy="445" opacity="0.79"></circle><circle r="4.5" cx="449" cy="562" opacity="0.31"></circle><circle r="4.5" cx="318" cy="608" opacity="0.87"></circle><circle r="4.5" cx="188" cy="561" opacity="0.47"></circle><circle r="4.5" cx="115" cy="442" opacity="0.12"></circle><circle r="4.5" cx="134" cy="304" opacity="0.41"></circle><circle r="4.5" cx="235" cy="207" opacity="0.63"></circle><circle r="4.5" cx="375" cy="196" opacity="0.45"></circle><circle r="4.5" cx="492" cy="276" opacity="0.80"></circle><circle r="4.5" cx="532" cy="412" opacity="0.97"></circle><circle r="4.5" cx="478" cy="543" opacity="0.87"></circle><circle r="4.5" cx="353" cy="611" opacity="0.39"></circle><circle r="4.5" cx="213" cy="586" opacity="0.16"></circle><circle r="4.5" cx="119" cy="477" opacity="0.77"></circle><circle r="4.5" cx="115" cy="333" opacity="0.89"></circle><circle r="4.5" cx="202" cy="219" opacity="0.56"></circle><circle r="4.5" cx="342" cy="184" opacity="0.54"></circle><circle r="4.5" cx="474" cy="246" opacity="0.43"></circle><circle r="4.5" cx="537" cy="376" opacity="0.19"></circle><circle r="4.5" cx="504" cy="519" opacity="0.15"></circle><circle r="4.5" cx="389" cy="609" opacity="0.75"></circle><circle r="4.5" cx="242" cy="606" opacity="0.68"></circle><circle r="4.5" cx="129" cy="512" opacity="0.65"></circle><circle r="5" cx="101" cy="367" opacity="0.44"></circle><circle r="5" cx="170" cy="236" opacity="0.17"></circle><circle r="5" cx="306" cy="177" opacity="0.82"></circle><circle r="5" cx="450" cy="218" opacity="0.38"></circle><circle r="5" cx="536" cy="340" opacity="0.62"></circle><circle r="5" cx="527" cy="490" opacity="0.12"></circle><circle r="5" cx="425" cy="600" opacity="0.42"></circle><circle r="5" cx="275" cy="622" opacity="0.16"></circle><circle r="5" cx="145" cy="545" opacity="0.90"></circle><circle r="5" cx="92" cy="403" opacity="0.10"></circle><circle r="5" cx="140" cy="259" opacity="0.19"></circle><circle r="5" cx="269" cy="176" opacity="0.75"></circle><circle r="5" cx="421" cy="193" opacity="0.23"></circle><circle r="5" cx="529" cy="303" opacity="0.56"></circle><circle r="5" cx="545" cy="456" opacity="0.34"></circle><circle r="5" cx="460" cy="585" opacity="0.68"></circle><circle r="5" cx="312" cy="633" opacity="0.25"></circle><circle r="5" cx="167" cy="576" opacity="0.88"></circle><circle r="5" cx="89" cy="441" opacity="0.42"></circle><circle r="5" cx="114" cy="287" opacity="0.29"></circle><circle r="5" cx="231" cy="182" opacity="0.25"></circle><circle r="5" cx="388" cy="174" opacity="0.83"></circle><circle r="5" cx="516" cy="267" opacity="0.35"></circle><circle r="5" cx="557" cy="419" opacity="0.53"></circle><circle r="5" cx="492" cy="564" opacity="0.53"></circle><circle r="5" cx="351" cy="637" opacity="0.61"></circle><circle r="5" cx="194" cy="604" opacity="0.14"></circle><circle r="5" cx="93" cy="480" opacity="0.83"></circle><circle r="5" cx="93" cy="320" opacity="0.21"></circle><circle r="5" cx="194" cy="194" opacity="0.97"></circle><circle r="5" cx="351" cy="160" opacity="0.42"></circle><circle r="5" cx="496" cy="232" opacity="0.98"></circle><circle r="5" cx="563" cy="380" opacity="0.74"></circle><circle r="5" cx="522" cy="538" opacity="0.42"></circle><circle r="5" cx="391" cy="635" opacity="0.33"></circle><circle r="5" cx="227" cy="627" opacity="0.76"></circle><circle r="5" cx="104" cy="519" opacity="0.26"></circle><circle r="5" cx="77" cy="356" opacity="0.89"></circle><circle r="5" cx="158" cy="213" opacity="0.89"></circle><circle r="5" cx="312" cy="152" opacity="0.85"></circle><circle r="5.5" cx="470" cy="201" opacity="0.25"></circle><circle r="5.5" cx="562" cy="340" opacity="0.34"></circle><circle r="5.5" cx="547" cy="506" opacity="0.90"></circle><circle r="5.5" cx="430" cy="626" opacity="0.84"></circle><circle r="5.5" cx="264" cy="645" opacity="0.74"></circle><circle r="5.5" cx="121" cy="556" opacity="0.38"></circle><circle r="5.5" cx="67" cy="396" opacity="0.68"></circle><circle r="5.5" cx="125" cy="238" opacity="0.21"></circle><circle r="5.5" cx="270" cy="150" opacity="0.79"></circle><circle r="5.5" cx="439" cy="174" opacity="0.95"></circle><circle r="5.5" cx="555" cy="299" opacity="0.22"></circle><circle r="5.5" cx="567" cy="469" opacity="0.46"></circle><circle r="5.5" cx="469" cy="610" opacity="0.84"></circle><circle r="5.5" cx="304" cy="657" opacity="0.78"></circle><circle r="5.5" cx="145" cy="591" opacity="0.44"></circle><circle r="5.5" cx="64" cy="438" opacity="0.39"></circle><circle r="5.5" cx="96" cy="268" opacity="0.67"></circle><circle r="5.5" cx="228" cy="156" opacity="0.58"></circle><circle r="5.5" cx="402" cy="152" opacity="0.75"></circle><circle r="5.5" cx="541" cy="258" opacity="0.55"></circle><circle r="5.5" cx="581" cy="429" opacity="0.11"></circle><circle r="5.5" cx="506" cy="587" opacity="0.97"></circle><circle r="5.5" cx="347" cy="663" opacity="0.38"></circle><circle r="5.5" cx="175" cy="622" opacity="0.47"></circle><circle r="5.5" cx="67" cy="482" opacity="0.12"></circle><circle r="5.5" cx="72" cy="304" opacity="0.12"></circle><circle r="5.5" cx="187" cy="169" opacity="0.72"></circle><circle r="5.5" cx="362" cy="136" opacity="0.76"></circle><circle r="5.5" cx="519" cy="220" opacity="0.13"></circle><circle r="5.5" cx="588" cy="386" opacity="0.51"></circle><circle r="5.5" cx="538" cy="558" opacity="0.71"></circle><circle r="5.5" cx="391" cy="661" opacity="0.54"></circle><circle r="5.5" cx="211" cy="648" opacity="0.15"></circle><circle r="5.5" cx="79" cy="524" opacity="0.77"></circle><circle r="5.5" cx="53" cy="345" opacity="0.37"></circle><circle r="5.5" cx="147" cy="189" opacity="0.58"></circle><circle r="5.5" cx="318" cy="126" opacity="0.12"></circle><circle r="5.5" cx="491" cy="186" opacity="0.39"></circle><circle r="5.5" cx="589" cy="341" opacity="0.92"></circle><circle r="5.5" cx="567" cy="523" opacity="0.14"></circle><circle r="6" cx="435" cy="651" opacity="0.46"></circle><circle r="6" cx="251" cy="668" opacity="0.83"></circle><circle r="6" cx="97" cy="566" opacity="0.63"></circle><circle r="6" cx="42" cy="388" opacity="0.97"></circle><circle r="6" cx="110" cy="216" opacity="0.70"></circle><circle r="6" cx="273" cy="124" opacity="0.33"></circle><circle r="6" cx="457" cy="155" opacity="0.24"></circle><circle r="6" cx="581" cy="296" opacity="0.71"></circle><circle r="6" cx="589" cy="483" opacity="0.69"></circle><circle r="6" cx="477" cy="635" opacity="0.42"></circle><circle r="6" cx="295" cy="682" opacity="0.62"></circle><circle r="6" cx="123" cy="604" opacity="0.92"></circle><circle r="6" cx="38" cy="435" opacity="0.40"></circle><circle r="6" cx="78" cy="249" opacity="0.86"></circle><circle r="6" cx="227" cy="130" opacity="0.62"></circle><circle r="6" cx="418" cy="131" opacity="0.62"></circle><circle r="6" cx="566" cy="252" opacity="0.18"></circle><circle r="6" cx="605" cy="439" opacity="0.54"></circle><circle r="6" cx="518" cy="610" opacity="0.33"></circle><circle r="6" cx="341" cy="688" opacity="0.83"></circle><circle r="6" cx="155" cy="638" opacity="0.93"></circle><circle r="6" cx="41" cy="482" opacity="0.92"></circle><circle r="6" cx="51" cy="288" opacity="0.86"></circle><circle r="6" cx="181" cy="143" opacity="0.44"></circle><circle r="6" cx="374" cy="112" opacity="0.93"></circle><circle r="6" cx="543" cy="210" opacity="0.47"></circle><circle r="6" cx="614" cy="392" opacity="0.70"></circle><circle r="6" cx="554" cy="579" opacity="0.93"></circle><circle r="6" cx="389" cy="687" opacity="0.77"></circle><circle r="6" cx="193" cy="668" opacity="0.53"></circle><circle r="6" cx="53" cy="529" opacity="0.92"></circle><circle r="6" cx="31" cy="332" opacity="0.83"></circle><circle r="6" cx="137" cy="164" opacity="0.71"></circle><circle r="6" cx="326" cy="101" opacity="0.77"></circle><circle r="6" cx="513" cy="171" opacity="0.38"></circle><circle r="6" cx="615" cy="343" opacity="0.73"></circle><circle r="6" cx="585" cy="542" opacity="0.20"></circle><circle r="6" cx="438" cy="678" opacity="0.92"></circle><circle r="6" cx="237" cy="690" opacity="0.18"></circle><circle r="6" cx="72" cy="574" opacity="0.30"></circle><circle r="6.5" cx="17" cy="379" opacity="0.45"></circle><circle r="6.5" cx="97" cy="193" opacity="0.94"></circle><circle r="6.5" cx="277" cy="98" opacity="0.29"></circle><circle r="6.5" cx="477" cy="138" opacity="0.28"></circle><circle r="6.5" cx="607" cy="294" opacity="0.67"></circle><circle r="6.5" cx="611" cy="499" opacity="0.48"></circle><circle r="6.5" cx="484" cy="660" opacity="0.95"></circle><circle r="6.5" cx="284" cy="706" opacity="0.31"></circle><circle r="6.5" cx="99" cy="616" opacity="0.73"></circle><circle r="6.5" cx="12" cy="429" opacity="0.52"></circle><circle r="6.5" cx="61" cy="229" opacity="0.61"></circle><circle r="6.5" cx="227" cy="103" opacity="0.17"></circle><circle r="6.5" cx="434" cy="110" opacity="0.77"></circle><circle r="6.5" cx="592" cy="246" opacity="0.64"></circle><circle r="6.5" cx="629" cy="451" opacity="0.57"></circle><circle r="6.5" cx="528" cy="634" opacity="0.61"></circle><circle r="6.5" cx="335" cy="714" opacity="0.49"></circle><circle r="6.5" cx="134" cy="654" opacity="0.21"></circle><circle r="6.5" cx="15" cy="480" opacity="0.59"></circle><circle r="6.5" cx="31" cy="270" opacity="0.16"></circle><circle r="6.5" cx="177" cy="117" opacity="0.24"></circle><circle r="6.5" cx="387" cy="89" opacity="0.82"></circle><circle r="6.5" cx="568" cy="200" opacity="0.95"></circle><circle r="6.5" cx="639" cy="400" opacity="0.15"></circle><circle r="6.5" cx="569" cy="601" opacity="0.51"></circle><circle r="6.5" cx="387" cy="713" opacity="0.34"></circle><circle r="6.5" cx="175" cy="686" opacity="0.42"></circle><circle r="6.5" cx="26" cy="532" opacity="0.76"></circle><circle r="6.5" cx="8" cy="317" opacity="0.84"></circle><circle r="6.5" cx="129" cy="139" opacity="0.83"></circle><circle r="6.5" cx="336" cy="76" opacity="0.45"></circle><circle r="6.5" cx="536" cy="158" opacity="0.83"></circle><circle r="6.5" cx="641" cy="347" opacity="0.30"></circle><circle r="6.5" cx="603" cy="561" opacity="0.32"></circle><circle r="6.5" cx="439" cy="704" opacity="0.29"></circle><circle r="6.5" cx="221" cy="712" opacity="0.50"></circle><circle r="6.5" cx="46" cy="581" opacity="0.32"></circle><circle r="6.5" cx="-7" cy="369" opacity="0.90"></circle><circle r="6.5" cx="85" cy="169" opacity="0.66"></circle><circle r="7" cx="282" cy="72" opacity="0.38"></circle><circle r="7" cx="497" cy="121" opacity="0.86"></circle><circle r="7" cx="634" cy="294" opacity="0.24"></circle><circle r="7" cx="631" cy="515" opacity="0.28"></circle><circle r="7" cx="490" cy="686" opacity="0.22"></circle><circle r="7" cx="272" cy="730" opacity="0.79"></circle><circle r="7" cx="75" cy="627" opacity="0.45"></circle><circle r="7" cx="-14" cy="422" opacity="0.15"></circle><circle r="7" cx="46" cy="207" opacity="0.42"></circle><circle r="7" cx="228" cy="77" opacity="0.72"></circle><circle r="7" cx="452" cy="90" opacity="0.97"></circle><circle r="7" cx="618" cy="242" opacity="0.17"></circle><circle r="7" cx="652" cy="464" opacity="0.38"></circle><circle r="7" cx="538" cy="659" opacity="0.15"></circle><circle r="7" cx="327" cy="739" opacity="0.19"></circle><circle r="7" cx="111" cy="669" opacity="0.89"></circle><circle r="7" cx="-12" cy="478" opacity="1.00"></circle><circle r="7" cx="12" cy="252" opacity="0.84"></circle><circle r="7" cx="174" cy="90" opacity="0.21"></circle><circle r="7" cx="401" cy="67" opacity="0.47"></circle><circle r="7" cx="593" cy="191" opacity="0.33"></circle><circle r="7" cx="664" cy="410" opacity="0.21"></circle><circle r="7" cx="582" cy="624" opacity="0.73"></circle><circle r="7" cx="383" cy="740" opacity="0.47"></circle><circle r="7" cx="155" cy="704" opacity="0.56"></circle><circle r="7" cx="-1" cy="533" opacity="0.42"></circle><circle r="7" cx="-14" cy="302" opacity="0.66"></circle><circle r="7" cx="122" cy="113" opacity="0.66"></circle><circle r="7" cx="346" cy="52" opacity="0.27"></circle><circle r="7" cx="560" cy="145" opacity="0.24"></circle><circle r="7" cx="667" cy="353" opacity="0.25"></circle><circle r="7" cx="620" cy="582" opacity="0.97"></circle><circle r="7" cx="439" cy="731" opacity="0.12"></circle><circle r="7" cx="204" cy="733" opacity="0.29"></circle><circle r="7" cx="20" cy="587" opacity="0.89"></circle><circle r="7" cx="-31" cy="357" opacity="0.36"></circle><circle r="7" cx="74" cy="145" opacity="0.82"></circle><circle r="7" cx="289" cy="46" opacity="0.73"></circle><circle r="7" cx="519" cy="105" opacity="0.55"></circle><circle r="7" cx="661" cy="295" opacity="0.41"></circle><circle r="7.5" cx="652" cy="533" opacity="0.25"></circle><circle r="7.5" cx="494" cy="713" opacity="0.15"></circle><circle r="7.5" cx="259" cy="753" opacity="0.22"></circle><circle r="7.5" cx="50" cy="637" opacity="0.37"></circle><circle r="7.5" cx="-40" cy="414" opacity="0.12"></circle><circle r="7.5" cx="31" cy="185" opacity="0.48"></circle><circle r="7.5" cx="230" cy="50" opacity="0.34"></circle><circle r="7.5" cx="471" cy="71" opacity="0.86"></circle><circle r="7.5" cx="645" cy="238" opacity="0.74"></circle><circle r="7.5" cx="675" cy="479" opacity="0.67"></circle><circle r="7.5" cx="547" cy="685" opacity="0.17"></circle><circle r="7.5" cx="317" cy="765" opacity="0.60"></circle><circle r="7.5" cx="88" cy="682" opacity="0.93"></circle><circle r="7.5" cx="-39" cy="474" opacity="0.71"></circle><circle r="7.5" cx="-6" cy="232" opacity="0.32"></circle><circle r="7.5" cx="172" cy="64" opacity="0.42"></circle><circle r="7.5" cx="417" cy="45" opacity="0.53"></circle><circle r="7.5" cx="619" cy="184" opacity="0.21"></circle><circle r="7.5" cx="689" cy="420" opacity="0.50"></circle><circle r="7.5" cx="595" cy="648" opacity="0.79"></circle><circle r="7.5" cx="377" cy="766" opacity="0.53"></circle><circle r="7.5" cx="134" cy="722" opacity="0.27"></circle><circle r="7.5" cx="-28" cy="533" opacity="0.82"></circle><circle r="7.5" cx="-35" cy="285" opacity="0.27"></circle><circle r="7.5" cx="116" cy="87" opacity="0.79"></circle><circle r="7.5" cx="358" cy="28" opacity="0.42"></circle><circle r="7.5" cx="584" cy="134" opacity="0.90"></circle><circle r="7.5" cx="693" cy="360" opacity="0.90"></circle><circle r="7.5" cx="636" cy="604" opacity="0.52"></circle><circle r="7.5" cx="438" cy="758" opacity="0.28"></circle><circle r="7.5" cx="187" cy="753" opacity="0.27"></circle><circle r="7.5" cx="-7" cy="591" opacity="0.25"></circle><circle r="7.5" cx="-55" cy="343" opacity="0.55"></circle><circle r="7.5" cx="64" cy="120" opacity="0.87"></circle><circle r="7.5" cx="297" cy="20" opacity="0.32"></circle><circle r="7.5" cx="541" cy="90" opacity="0.87"></circle><circle r="7.5" cx="688" cy="298" opacity="0.46"></circle><circle r="7.5" cx="671" cy="552" opacity="0.26"></circle><circle r="7.5" cx="498" cy="739" opacity="0.29"></circle><circle r="7.5" cx="244" cy="776" opacity="0.37"></circle></g></svg>